<svg xmlns="http://www.w3.org/2000/svg" xmlns:xlink="http://www.w3.org/1999/xlink" id="Layer_1" x="0px" y="0px" viewBox="0 0 184 121" style="enable-background:new 0 0 184 121;" xml:space="preserve"><path d="M94.6,117.8c-9.6,0-19-2.8-27-8.2c-8-5.3-14.2-12.9-17.9-21.8c-3.7-8.9-4.6-18.6-2.8-28.1c1.9-9.4,6.5-18.1,13.3-24.9 s15.4-11.4,24.9-13.3c9.4-1.9,19.2-0.9,28,2.8c8.9,3.7,16.5,9.9,21.8,17.9c5.3,8,8.2,17.4,8.2,27c0,12.9-5.1,25.2-14.2,34.3 C119.8,112.6,107.5,117.7,94.6,117.8z M94.6,26.1c-8.5,0-16.9,2.5-23.9,7.3c-7.1,4.7-12.6,11.5-15.9,19.3 c-3.3,7.9-4.1,16.5-2.5,24.9c1.7,8.4,5.8,16,11.8,22.1c6,6,13.7,10.1,22.1,11.8c8.4,1.7,17,0.8,24.9-2.5c7.9-3.3,14.6-8.8,19.3-15.9 c4.7-7.1,7.3-15.4,7.3-23.9c0-11.4-4.5-22.4-12.6-30.5C117,30.6,106,26.1,94.6,26.1z"></path><path d="M94.6,99.3c-6,0-11.8-1.8-16.7-5.1c-5-3.3-8.8-8-11.1-13.5s-2.9-11.6-1.7-17.4c1.2-5.8,4-11.2,8.2-15.4 c4.2-4.2,9.6-7.1,15.4-8.2c5.8-1.2,11.9-0.6,17.4,1.7c5.5,2.3,10.2,6.1,13.5,11.1c3.3,5,5.1,10.8,5.1,16.7c0,8-3.2,15.7-8.8,21.3 C110.3,96.2,102.6,99.3,94.6,99.3z M94.6,44.5c-4.9,0-9.6,1.4-13.7,4.2c-4,2.7-7.2,6.6-9.1,11.1c-1.9,4.5-2.4,9.5-1.4,14.2 c1,4.8,3.3,9.2,6.7,12.6c3.4,3.4,7.8,5.8,12.6,6.7c4.8,1,9.7,0.5,14.2-1.4c4.5-1.9,8.3-5,11.1-9.1c2.7-4.1,4.1-8.8,4.1-13.7 c0-6.5-2.6-12.8-7.2-17.4C107.4,47.1,101.1,44.5,94.6,44.5z"></path><path d="M159.7,117.8c-1.3,0-2.6-0.3-3.9-0.8c-1.2-0.5-2.3-1.3-3.2-2.3c-1-1-1.8-2.2-2.3-3.5c-0.5-1.3-0.8-2.7-0.8-4.1l1.2-57.9 c-2.2-1.5-4-3.4-5.3-5.8c-1.3-2.3-1.9-5-1.9-7.6V5c0-0.4,0.1-0.7,0.2-1c0.1-0.3,0.3-0.6,0.6-0.9c0.3-0.3,0.6-0.5,0.9-0.6 c0.3-0.1,0.7-0.2,1-0.2c0.4,0,0.7,0.1,1,0.2c0.3,0.1,0.6,0.3,0.9,0.6c0.3,0.3,0.5,0.6,0.6,0.9c0.1,0.3,0.2,0.7,0.2,1v30.8 c0,2,0.5,3.9,1.6,5.5c1,1.7,2.5,3,4.2,3.9c0.4,0.2,0.8,0.6,1.1,1c0.3,0.4,0.4,0.9,0.4,1.4l-1,59.7c0,0.7,0.1,1.3,0.3,2 c0.2,0.6,0.6,1.2,1.1,1.7c0.9,0.8,2,1.3,3.2,1.3c1.2,0,2.4-0.5,3.2-1.3c0.5-0.5,0.8-1.1,1.1-1.7c0.2-0.6,0.4-1.3,0.3-2l-1.2-59.5 c0-0.5,0.1-1,0.4-1.4c0.3-0.4,0.6-0.8,1.1-1c1.7-0.9,3.2-2.3,4.2-3.9c1-1.7,1.6-3.6,1.6-5.5V5.2c0-0.7,0.3-1.4,0.8-1.9 c0.5-0.5,1.2-0.8,1.9-0.8c0.7,0,1.4,0.3,1.9,0.8c0.5,0.5,0.8,1.2,0.8,1.9V36c0,2.7-0.6,5.3-1.9,7.6c-1.3,2.3-3.1,4.3-5.3,5.8 l1.2,57.9c0,1.4-0.2,2.8-0.8,4.1c-0.5,1.3-1.3,2.5-2.3,3.5c-0.9,0.9-2,1.6-3.2,2.1C162.3,117.5,161,117.8,159.7,117.8z"></path><path d="M155.2,33.8c-0.7,0-1.4-0.3-1.9-0.8c-0.5-0.5-0.8-1.2-0.8-1.9V5c0-0.7,0.3-1.4,0.8-1.9c0.5-0.5,1.2-0.8,1.9-0.8 s1.4,0.3,1.9,0.8c0.5,0.5,0.8,1.2,0.8,1.9v26.1c0,0.7-0.3,1.4-0.8,1.9C156.6,33.5,155.9,33.8,155.2,33.8z"></path><path d="M155.3,33.8c-0.7,0-1.4-0.3-1.9-0.8c-0.5-0.5-0.8-1.2-0.8-1.9V5c0-0.7,0.3-1.4,0.8-1.9c0.5-0.5,1.2-0.8,1.9-0.8 c0.7,0,1.4,0.3,1.9,0.8c0.5,0.5,0.8,1.2,0.8,1.9v26.1c0,0.7-0.3,1.4-0.8,1.9C156.7,33.5,156,33.8,155.3,33.8z"></path><path d="M164.2,33.8c-0.7,0-1.4-0.3-1.9-0.8c-0.5-0.5-0.8-1.2-0.8-1.9V5c0-0.7,0.3-1.4,0.8-1.9c0.5-0.5,1.2-0.8,1.9-0.8 c0.7,0,1.4,0.3,1.9,0.8c0.5,0.5,0.8,1.2,0.8,1.9v26.1c0,0.7-0.3,1.4-0.8,1.9C165.6,33.5,164.9,33.8,164.2,33.8z"></path><path d="M164.2,33.8c-0.7,0-1.4-0.3-1.9-0.8c-0.5-0.5-0.8-1.2-0.8-1.9V5c0-0.7,0.3-1.4,0.8-1.9c0.5-0.5,1.2-0.8,1.9-0.8 s1.4,0.3,1.9,0.8c0.5,0.5,0.8,1.2,0.8,1.9v26.1c0,0.7-0.3,1.4-0.8,1.9C165.6,33.5,165,33.8,164.2,33.8z"></path><path d="M22.1,117.8c-2.3,0-4.5-0.8-6.1-2.4c-1.6-1.6-2.6-3.7-2.6-6V9.3c0-0.9,0.2-1.9,0.6-2.7c0.4-0.9,0.9-1.6,1.6-2.3 c0.7-0.7,1.5-1.2,2.3-1.5c0.9-0.3,1.8-0.5,2.7-0.5c1.2,0,2.4,0.3,3.5,0.9c1.1,0.6,2,1.4,2.7,2.4c7.4,11.6,11.4,25,11.4,38.8v10.3 c0,1.1-0.5,2.2-1.3,2.9c-0.8,0.8-1.9,1.2-3,1.2h-3.2v50.5c0,1.1-0.3,2.2-0.7,3.3c-0.5,1-1.1,2-1.9,2.7c-0.8,0.8-1.8,1.4-2.8,1.8 C24.4,117.6,23.3,117.8,22.1,117.8z M20.7,7.7c-0.2,0-0.5,0-0.7,0.1c-0.2,0.1-0.4,0.2-0.6,0.3S19.1,8.4,19,8.6 c-0.1,0.2-0.2,0.4-0.2,0.7v100.1c0.1,0.8,0.5,1.6,1.1,2.1c0.6,0.6,1.4,0.9,2.2,0.9s1.6-0.3,2.2-0.9c0.6-0.6,1-1.3,1.1-2.1V57.8 c0-0.6,0.1-1.2,0.4-1.7c0.2-0.5,0.6-1,1-1.4c0.4-0.4,0.9-0.7,1.5-0.9c0.5-0.2,1.1-0.3,1.7-0.3H33v-9.1c0-12.7-3.7-25.2-10.6-35.9 C22.2,8.3,22,8,21.7,7.9C21.4,7.7,21,7.7,20.7,7.7z"></path><path d="M34.1,58.9H23.5c-0.7,0-1.4-0.3-1.9-0.8c-0.5-0.5-0.8-1.2-0.8-1.9c0-0.7,0.3-1.4,0.8-1.9c0.5-0.5,1.2-0.8,1.9-0.8H34 c0.7,0,1.4,0.3,1.9,0.8c0.5,0.5,0.8,1.2,0.8,1.9c0,0.7-0.3,1.4-0.8,1.9c-0.5,0.5-1.2,0.8-1.9,0.8H34.1z"></path><path d="M176.4,117.8H7.1c-0.7,0-1.4-0.3-1.9-0.8c-0.5-0.5-0.8-1.2-0.8-1.9c0-0.7,0.3-1.4,0.8-1.9c0.5-0.5,1.2-0.8,1.9-0.8h169.3 c0.4,0,0.7,0.1,1,0.2c0.3,0.1,0.6,0.3,0.9,0.6c0.3,0.3,0.5,0.6,0.6,0.9c0.1,0.3,0.2,0.7,0.2,1s-0.1,0.7-0.2,1 c-0.1,0.3-0.3,0.6-0.6,0.9c-0.3,0.3-0.6,0.5-0.9,0.6C177.1,117.7,176.8,117.8,176.4,117.8z"></path></svg>